<mxfile host="app.diagrams.net" modified="2021-10-12T11:40:03.909Z" agent="5.0 (X11)" etag="KfjePivecAQyUxllgdnN" version="15.3.8" type="github">
  <diagram id="JDvK5JgYtzo7YM8z0WjD" name="DiagrammeContexteStatique">
    <mxGraphModel dx="730" dy="773" grid="1" gridSize="10" guides="1" tooltips="1" connect="1" arrows="1" fold="1" page="1" pageScale="1" pageWidth="850" pageHeight="1100" math="0" shadow="0">
      <root>
        <mxCell id="0" />
        <mxCell id="1" parent="0" />
        <mxCell id="9iN0fUFvztX9pUTfpyMR-3" value="Object" style="html=1;" parent="1" vertex="1">
          <mxGeometry x="25" y="210" width="800" height="630" as="geometry" />
        </mxCell>
        <mxCell id="9iN0fUFvztX9pUTfpyMR-4" value="" style="html=1;fillColor=#dae8fc;strokeColor=#6c8ebf;" parent="1" vertex="1">
          <mxGeometry x="225" y="210" width="600" height="630" as="geometry" />
        </mxCell>
        <mxCell id="9iN0fUFvztX9pUTfpyMR-5" value="Cas d&#39;utilisation Intervenant" style="text;html=1;resizable=0;autosize=1;align=center;verticalAlign=middle;points=[];fillColor=none;strokeColor=none;rounded=0;fontSize=24;" parent="1" vertex="1">
          <mxGeometry x="515" y="235" width="310" height="30" as="geometry" />
        </mxCell>
        <mxCell id="9iN0fUFvztX9pUTfpyMR-9" value="Intervenant" style="shape=umlActor;verticalLabelPosition=bottom;verticalAlign=top;html=1;fontSize=24;" parent="1" vertex="1">
          <mxGeometry x="100" y="430" width="70" height="140" as="geometry" />
        </mxCell>
        <mxCell id="FNAhR9jihJerrEEBllIZ-1" value="&lt;div style=&quot;font-size: 16px&quot;&gt;&lt;font style=&quot;font-size: 16px&quot;&gt;Demande de création&lt;/font&gt;&lt;/div&gt;&lt;div style=&quot;font-size: 16px&quot;&gt;&lt;font style=&quot;font-size: 16px&quot;&gt;de compte&lt;br&gt;&lt;/font&gt;&lt;/div&gt;" style="ellipse;whiteSpace=wrap;html=1;" vertex="1" parent="1">
          <mxGeometry x="300" y="235" width="245" height="130" as="geometry" />
        </mxCell>
        <mxCell id="FNAhR9jihJerrEEBllIZ-2" value="" style="endArrow=none;html=1;entryX=0;entryY=0.5;entryDx=0;entryDy=0;exitX=0.471;exitY=0.55;exitDx=0;exitDy=0;exitPerimeter=0;" edge="1" parent="1" source="9iN0fUFvztX9pUTfpyMR-9" target="FNAhR9jihJerrEEBllIZ-1">
          <mxGeometry width="50" height="50" relative="1" as="geometry">
            <mxPoint x="170" y="480" as="sourcePoint" />
            <mxPoint x="350" y="540" as="targetPoint" />
          </mxGeometry>
        </mxCell>
        <mxCell id="FNAhR9jihJerrEEBllIZ-3" value="&lt;div&gt;&lt;font style=&quot;font-size: 16px&quot;&gt;Saisie de ses disponibilités&lt;/font&gt;&lt;/div&gt;&lt;div&gt;&lt;font style=&quot;font-size: 16px&quot;&gt;par demie-journée&lt;br&gt;&lt;/font&gt;&lt;/div&gt;" style="ellipse;whiteSpace=wrap;html=1;" vertex="1" parent="1">
          <mxGeometry x="350" y="365" width="245" height="130" as="geometry" />
        </mxCell>
        <mxCell id="FNAhR9jihJerrEEBllIZ-4" value="" style="endArrow=none;html=1;exitX=0.457;exitY=0.557;exitDx=0;exitDy=0;exitPerimeter=0;" edge="1" parent="1" source="9iN0fUFvztX9pUTfpyMR-9" target="FNAhR9jihJerrEEBllIZ-3">
          <mxGeometry width="50" height="50" relative="1" as="geometry">
            <mxPoint x="142.97000000000003" y="517" as="sourcePoint" />
            <mxPoint x="350" y="365" as="targetPoint" />
          </mxGeometry>
        </mxCell>
        <mxCell id="FNAhR9jihJerrEEBllIZ-5" value="&lt;font style=&quot;font-size: 16px&quot;&gt;Modification de ses disponibilités&lt;br&gt;&lt;/font&gt;" style="ellipse;whiteSpace=wrap;html=1;" vertex="1" parent="1">
          <mxGeometry x="570" y="430" width="245" height="130" as="geometry" />
        </mxCell>
        <mxCell id="FNAhR9jihJerrEEBllIZ-6" value="" style="endArrow=none;html=1;entryX=0;entryY=0.5;entryDx=0;entryDy=0;" edge="1" parent="1" target="FNAhR9jihJerrEEBllIZ-5">
          <mxGeometry width="50" height="50" relative="1" as="geometry">
            <mxPoint x="135" y="510" as="sourcePoint" />
            <mxPoint x="370.8505876726333" y="502.64653448914873" as="targetPoint" />
          </mxGeometry>
        </mxCell>
        <mxCell id="FNAhR9jihJerrEEBllIZ-7" value="&lt;div style=&quot;font-size: 16px&quot;&gt;&lt;font style=&quot;font-size: 16px&quot;&gt;Autorisation des droits de &lt;br&gt;&lt;/font&gt;&lt;/div&gt;&lt;div style=&quot;font-size: 16px&quot;&gt;&lt;font style=&quot;font-size: 16px&quot;&gt;lecture du ou des responsables&lt;/font&gt;&lt;/div&gt;&lt;div style=&quot;font-size: 16px&quot;&gt;&lt;font style=&quot;font-size: 16px&quot;&gt;pédegogiques&lt;br&gt;&lt;/font&gt;&lt;/div&gt;" style="ellipse;whiteSpace=wrap;html=1;" vertex="1" parent="1">
          <mxGeometry x="370" y="520" width="245" height="130" as="geometry" />
        </mxCell>
        <mxCell id="FNAhR9jihJerrEEBllIZ-8" value="" style="endArrow=none;html=1;entryX=0;entryY=0.5;entryDx=0;entryDy=0;" edge="1" parent="1" target="FNAhR9jihJerrEEBllIZ-7">
          <mxGeometry width="50" height="50" relative="1" as="geometry">
            <mxPoint x="140" y="510" as="sourcePoint" />
            <mxPoint x="380" y="570" as="targetPoint" />
          </mxGeometry>
        </mxCell>
        <mxCell id="FNAhR9jihJerrEEBllIZ-9" value="&lt;div style=&quot;font-size: 16px&quot;&gt;&lt;font style=&quot;font-size: 16px&quot;&gt;Accepter la réservation&lt;/font&gt;&lt;/div&gt;&lt;div style=&quot;font-size: 16px&quot;&gt;&lt;font style=&quot;font-size: 16px&quot;&gt;d&#39;un crénau par un&lt;/font&gt;&lt;/div&gt;&lt;div style=&quot;font-size: 16px&quot;&gt;&lt;font style=&quot;font-size: 16px&quot;&gt;responsable pédagogique&lt;br&gt;&lt;/font&gt;&lt;/div&gt;" style="ellipse;whiteSpace=wrap;html=1;" vertex="1" parent="1">
          <mxGeometry x="540" y="630" width="245" height="130" as="geometry" />
        </mxCell>
        <mxCell id="FNAhR9jihJerrEEBllIZ-10" value="" style="endArrow=none;html=1;entryX=0;entryY=0.5;entryDx=0;entryDy=0;" edge="1" parent="1" target="FNAhR9jihJerrEEBllIZ-9">
          <mxGeometry width="50" height="50" relative="1" as="geometry">
            <mxPoint x="135" y="510" as="sourcePoint" />
            <mxPoint x="380" y="595" as="targetPoint" />
          </mxGeometry>
        </mxCell>
        <mxCell id="FNAhR9jihJerrEEBllIZ-11" value="&lt;div style=&quot;font-size: 16px&quot;&gt;&lt;font style=&quot;font-size: 16px&quot;&gt;Possibilité d&#39;envoi du&lt;/font&gt;&lt;/div&gt;&lt;div style=&quot;font-size: 16px&quot;&gt;&lt;font style=&quot;font-size: 16px&quot;&gt;tableau de disponibilités&lt;/font&gt;&lt;/div&gt;&lt;div style=&quot;font-size: 16px&quot;&gt;&lt;font style=&quot;font-size: 16px&quot;&gt;par mail&lt;br&gt;&lt;/font&gt;&lt;/div&gt;" style="ellipse;whiteSpace=wrap;html=1;" vertex="1" parent="1">
          <mxGeometry x="310" y="680" width="245" height="130" as="geometry" />
        </mxCell>
        <mxCell id="FNAhR9jihJerrEEBllIZ-12" value="" style="endArrow=none;html=1;" edge="1" parent="1" target="FNAhR9jihJerrEEBllIZ-11">
          <mxGeometry width="50" height="50" relative="1" as="geometry">
            <mxPoint x="140" y="510" as="sourcePoint" />
            <mxPoint x="550" y="705" as="targetPoint" />
          </mxGeometry>
        </mxCell>
      </root>
    </mxGraphModel>
  </diagram>
</mxfile>
